#N canvas 275 23 631 585 10;
#X obj 51 139 s bela_setDigital @hv_param;
#X obj 60 29 loadbang;
#X obj 348 308 dac~ 3;
#X obj 391 146 delay 10;
#X floatatom 346 227 5 0 0 0 - - -, f 5;
#X obj 347 258 sig~;
#X msg 345 182 1;
#X msg 399 178 0;
#X obj 306 62 metro 60;
#X msg 47 88 in 12 ~;
#X obj 55 183 adc~ 12;
#X obj 425 315 dac~ 27;
#X obj 113 213 dac~ 28;
#X obj 52 239 threshold~ 0.5 0 0.5 0;
#X obj 50 303 timer;
#X floatatom 49 337 5 0 0 0 - - -, f 5;
#X obj 49 435 print;
#X obj 109 412 metro 500;
#X msg 196 201 0;
#X obj 308 99 t b b b;
#X obj 259 390 loadbang;
#X obj 49 369 expr $f1 * 1000 / 58;
#X connect 1 0 9 0;
#X connect 1 0 8 0;
#X connect 3 0 7 0;
#X connect 4 0 5 0;
#X connect 5 0 2 0;
#X connect 5 0 11 0;
#X connect 6 0 4 0;
#X connect 7 0 4 0;
#X connect 8 0 19 0;
#X connect 9 0 0 0;
#X connect 10 0 12 0;
#X connect 10 0 13 0;
#X connect 13 0 14 0;
#X connect 13 1 14 1;
#X connect 14 0 15 0;
#X connect 15 0 21 0;
#X connect 17 0 16 0;
#X connect 18 0 13 1;
#X connect 19 0 18 0;
#X connect 19 1 3 0;
#X connect 19 2 6 0;
#X connect 20 0 17 0;
#X connect 21 0 16 0;
